<svg t="1693994396865" class="icon" viewBox="0 0 1024 1024" version="1.1" xmlns="http://www.w3.org/2000/svg" p-id="13725" width="32" height="32"><path d="M760 559.3c-0.7 139.1-114.2 251.4-253.3 250.6-139.2-0.7-251.4-114.2-250.7-253.3s114.2-251.4 253.3-250.6c139.3 0.7 251.5 114.2 250.7 253.3z" fill="#FFE100" p-id="13726"></path><path d="M506.6 809.9c139.1 0.7 252.6-111.5 253.3-250.6 0.4-77.3-34-146.6-88.5-193.2 21.3 35.7 66.6 126.4 47.1 224.4-30.1 151.3-160.6 190.3-252 189.8-90.4-0.5-160.8-70.8-195.3-135.9 35.2 96.2 127.2 165 235.4 165.5z" fill="#F5E22A" p-id="13727"></path><path d="M506.6 809.9c139.1 0.7 252.6-111.5 253.3-250.6 0.4-77.3-34-146.6-88.5-193.2 21.3 35.7 66.6 126.4 47.1 224.4-8.3 41.7-29.9 82.6-50.6 108.8-5.3 6.8-39-65.2-46.2-69.5-15-8.9 40 76.4 32 83.6-55.6 49.6-128.6 67.3-187.2 66.9-90.4-0.5-160.8-70.8-195.3-135.9 35.2 96.2 127.2 165 235.4 165.5z" fill="#CEB000" p-id="13728"></path><path d="M350.2 753.3s40-37.9 149.2-37.3c109.3 0.6 159.2 43.8 159.2 43.8s-28.9 47-152.4 46.9c-123.6-0.1-156-53.4-156-53.4z" fill="#F04726" p-id="13729"></path><path d="M506.7 814h-0.5c-126.2-0.1-160.9-54.7-162.3-56.9l-3.1-5.1 4.3-4.1c1.7-1.7 42.8-39.3 151.7-39.3h2.6c110.7 0.6 161.9 43.8 164 45.7l4.7 4.1-3.2 5.3c-1.3 2-32.5 50.3-158.2 50.3z m-146.1-59.5c4.4 4.8 12.6 12.2 26 19.6 20.7 11.5 58.2 25.1 119.5 25.1h0.5c92.8 0 129.6-26.7 141.2-38.3-15.9-10.6-64.1-37.3-148.5-37.8h-2.5c-81 0.2-122.3 22.2-136.2 31.4z" fill="#592900" p-id="13730"></path><path d="M332.3 813.3c-4.6 0-8.7-3.4-9.3-8.1-0.7-5.1 2.9-9.8 8-10.5l62.5-8.7c5.1-0.7 9.8 2.9 10.5 8s-2.9 9.8-8 10.5l-62.5 8.7c-0.3 0-0.7 0.1-1.2 0.1z" fill="#592900" p-id="13731"></path><path d="M349.9 871.1c-1.8 0-3.7-0.5-5.2-1.6-4.3-2.9-5.4-8.8-2.5-13l44.8-66.5c2.9-4.3 8.7-5.4 13-2.5 4.3 2.9 5.4 8.8 2.5 13L357.7 867.1c-1.8 2.6-4.8 4-7.8 4z" fill="#592900" p-id="13732"></path><path d="M397.3 846.1c-4.9 0-9.1-3.9-9.4-8.8l-2.6-41.6c-0.3-5.2 3.7-9.6 8.8-9.9 5.3-0.3 9.6 3.7 9.9 8.8l2.6 41.6c0.3 5.2-3.7 9.6-8.8 9.9h-0.5z" fill="#592900" p-id="13733"></path><path d="M673.4 814.5c-0.4 0-0.9 0-1.4-0.1l-62.4-9.3c-5.1-0.7-8.7-5.5-7.9-10.6 0.7-5.1 5.6-8.7 10.6-7.9l62.4 9.3c5.1 0.7 8.7 5.5 7.9 10.6-0.6 4.7-4.6 8-9.2 8z" fill="#592900" p-id="13734"></path><path d="M655.2 872.3c-3 0-6-1.5-7.8-4.2l-44.2-67c-2.8-4.3-1.7-10.1 2.7-12.9s10.1-1.7 12.9 2.7l44.1 67.1c2.8 4.3 1.7 10.1-2.7 12.9-1.5 0.9-3.3 1.4-5 1.4z" fill="#592900" p-id="13735"></path><path d="M608 846.7h-0.7c-5.1-0.4-9.1-4.9-8.7-10l3-41.5c0.4-5.2 4.9-9.1 10-8.7 5.1 0.4 9.1 4.9 8.7 10l-3 41.5c-0.2 5-4.4 8.7-9.3 8.7z" fill="#592900" p-id="13736"></path><path d="M508 824h-1.5c-146.6-0.8-265.4-120.8-264.6-267.5 0.4-71 28.5-137.8 79-187.7s117.4-77.2 188.6-76.9c71 0.4 137.8 28.5 187.7 79 50 50.5 77.3 117.5 76.9 188.6C773.2 705.6 654 824 508 824z m0-504c-63.1 0-122.4 24.4-167.3 68.7-45.2 44.7-70.3 104.3-70.6 167.9-0.7 131.2 105.4 238.5 236.6 239.2h1.4c130.6 0 237.3-105.9 237.9-236.6 0.3-63.5-24.1-123.5-68.7-168.6-44.6-45.2-104.3-70.3-167.9-70.6H508z" fill="#592900" p-id="13737"></path><path d="M497.9 367.8c-1.3 0-2.5-0.1-3.9-0.4-7.2-1.7-12.2-7.3-14.8-16.8-0.2-0.6-0.5-1.6-0.8-2.7-1.5-4.6-2.6-8.2-3.1-11.2-4-13.5-10.3-15.2-25.4-19.3-3.5-0.9-7.3-2-11.2-3.2-14-4.5-24.5-17.2-26.6-32.3-2.3-15.6 4.8-30.8 18.8-40.6 9.1-7.1 19.8-9.8 30.1-7.8-3.1-20.4-3.9-40.6 1.3-56C475 138.9 502.8 117.8 536.4 121.1c17.2 1.7 27 7.1 37.2 15.3 13.6 10.8 19.3 28.5 16.3 47.5 6.7-3.4 13-5.4 19.2-5.5 10.8-0.1 16.3 2.4 20.9 5l0.4 0.2c17.6 10 37.1 48.8 26.6 72.5-2 4.5-4.9 8.4-8.8 11.6-9.8 8-24 13-38.9 18.5-15.3 5.5-31.3 11.3-43 20.1-9.2 7-28.8 28.1-39.3 39.4-7.6 8.2-10 10.7-11.7 12.1-0.1 0.2-0.3 0.3-0.4 0.5-2.7 3-8.5 9.5-17 9.5z m-43.6-106.8c-2.5 0-4.8 1.3-6.4 2.6l-0.9 0.6c-7 4.7-7.8 10-7.3 13.7 0.6 4.5 3.7 8.3 7.4 9.5 3.3 1 6.7 2 9.8 2.8 16.6 4.5 37.2 10 45.4 39.6 0 0.2 0.1 0.3 0.1 0.5 1.3-1.4 2.5-2.7 3.8-4.1 12.7-13.7 31.8-34.2 42.9-42.7 15.1-11.5 33.9-18.3 50.5-24.2 12.6-4.5 24.5-8.8 30.7-13.8 0.2-0.2 0.5-0.5 0.8-1 4.2-9.3-8.3-33.1-14.7-36.6l-0.4-0.2c-1.8-0.9-2.5-1.4-6.7-1.4-2.1 0-9.1 1.9-29.5 19.1-15.1 12.7-31.5 47.5-36.7 60-0.1 0.3-0.2 0.5-0.3 0.8-2.6 5.7-8.7 9-14.9 8-6.4-0.9-11.3-6.2-11.9-12.5v-0.5c0-0.5-0.1-1.1 0-1.7-0.6-18.4 8.1-34.6 12.9-43.5 0.5-0.9 0.9-1.8 1.4-2.5 2.9-5.5 8.1-13 13.8-21 5.9-8.4 13.5-19 15.5-24.2 5.7-14.3 2.4-25.3-3.4-30.1-7-5.5-11.9-8.2-22.4-9.3-27.2-2.6-39.7 22.2-44.7 37.3-7.2 21.6 4.3 66.9 8 81.8 1.8 7.2-2.2 14.5-9.2 16.8-7 2.3-14.6-1.1-17.4-8-1.3-2.9-6.2-12-12.5-15.1-1.4-0.5-2.6-0.7-3.7-0.7z" fill="#592900" p-id="13738"></path><path d="M622.6 195.8c-16.2-9.1-29.2-0.7-52.6 18.9-21.3 17.8-40.8 65.6-40.8 65.6-1.7-15.7 6.9-29.4 12.7-40.3 5.7-11 14.8-19.5 25.4-37.7 14-23.6 8.4-44.6-4.1-54.7-36.9-29.5-76.6-2-88.7 34.1-7.8 23.4 1.1 63.7 7.7 89.7-4.8-9.8-18.9-32.9-40.4-21.3-27 14.5-19 44.4 0 50.5 20.7 6.7 38.7 6.4 46 32.9 0.3 2.9 3 11.1 3.9 13.2 4.2 12.4 8.2 4.5 13.3 0.1 3.9-3.3 26.7-32.6 51.7-52 25-19.4 64.5-24.4 81.5-38.3 17.4-13.7-2.2-53.2-15.6-60.7z" fill="#F04726" p-id="13739"></path><path d="M557 294.9c25-19.4 64.5-24.4 81.5-38.3 17.1-13.9-2.6-53.3-15.9-60.8-4.8-2.7-9.3-3.9-13.8-3.7 8 3.9 28.8 16.6 17 40.7-9.7 19.8-33.6 31.2-54.8 43.2-17.4 9.9-57.5 54.9-66.2 71.2 0.2-0.1 0.4-0.2 0.5-0.3 4.8-1.8 26.8-32.6 51.7-52zM565.3 162.7c4.5 16.2-15.3 39.4-21.8 50.3-6.6 11-19.7 38.4-14.2 67.4-1.7-15.7 6.9-29.3 12.7-40.3 5.7-11 14.8-19.5 25.4-37.7 14-23.6 8.4-44.6-4.1-54.7-9.2-7.3-18.6-11.2-27.5-12.2 10.2 3.6 25.1 11.2 29.5 27.2zM437.4 253.5s14.8-4.1 24.4 1.7c9.3 5.5 20.8 16.4 20.8 16.4s-6.7-16.3-19.4-22.4c-14.2-6.8-25.8 4.3-25.8 4.3z" fill="#912527" p-id="13740"></path><path d="M448.1 295.8c-0.3 0-0.5 0-0.8-0.1-15.9-3.7-17.9-19.9-16.8-28.1 0.3-2 2.2-3.4 4.2-3.1s3.4 2.2 3.1 4.2c-0.1 0.7-2.1 16.8 11.2 19.9 2 0.4 3.2 2.4 2.7 4.4-0.4 1.6-1.9 2.8-3.6 2.8z" fill="#FFFFFF" p-id="13741"></path><path d="M483.2 232.3c-1.8 0-3.2-1.3-3.7-3-7.6-41.2 16.2-64.7 17.1-65.7 1.5-1.5 3.8-1.4 5.2 0.1 1.5 1.5 1.4 3.8-0.1 5.2-0.9 0.9-21.9 22-15 59 0.4 2-0.9 4-2.9 4.3-0.2 0.1-0.4 0.1-0.6 0.1z" fill="#FFFFFF" p-id="13742"></path><path d="M515.6 158.8c0 2.4-2 4.4-4.4 4.3-2.4 0-4.4-2-4.3-4.4 0-2.4 2-4.4 4.4-4.3 2.3 0 4.3 2 4.3 4.4z" fill="#FFFFFF" p-id="13743"></path><path d="M521.6 508.5s13.6 8 11.3 16.5c-2.6 9.5-17.7 5.6-23.7 5.6s-29.5-2.1-29.5-2.1l3.4-6 38.5-14z" fill="#CACACB" p-id="13744"></path><path d="M481 517.9l5.7-6c9.1-9.6 24.5-9.3 33.2 0.8l4.9 5.6c2.4 2.8 0.4 7.2-3.3 7.2l-37.3-0.2c-3.8-0.1-5.8-4.7-3.2-7.4z" fill="#F29019" p-id="13745"></path><path d="M521.6 529.1l-37.4-0.2c-3.2 0-6-1.9-7.3-4.9-1.3-3-0.6-6.3 1.6-8.7l5.7-6.2c5-5.3 12.1-8.3 19.5-8.1 7.3 0.2 14.3 3.4 19.1 9.1l4.9 5.6c2.1 2.4 2.5 5.7 1.3 8.6-1.5 3-4.3 4.8-7.4 4.8z m-37.9-8.7c-0.1 0.1-0.3 0.3-0.1 0.7 0.2 0.4 0.5 0.4 0.6 0.4l37.3 0.2c0.1 0 0.4 0 0.6-0.4s0-0.6-0.1-0.7l-4.9-5.6c-3.4-4-8.4-6.4-13.7-6.5-5.2 0-10.3 2-14 5.8l-5.7 6.1z" fill="#592900" p-id="13746"></path><path d="M739.5 412.4L517 391.1l-3.2-0.3-222.6-21.4c-0.2 1.3-0.3 2.5-0.4 3.9-6 62.3 39.7 117.8 102.2 123.7 55.7 5.3 105.9-30.6 120.3-82.7 4.3 53.9 46.6 98.7 102.3 104 62.4 5.9 117.9-39.7 123.8-102.2 0-1.2 0.1-2.5 0.1-3.7z" fill="#592900" p-id="13747"></path><path d="M391.1 501.3l-46.4-4.5-36.3-145.2 46.4 4.3zM441.1 506.1l-11.8-1.1L393 359.7l11.8 1.1zM474.8 509.3l-13.3-1.3-36.3-145.3 13.3 1.3zM634.4 521l-9.2 4.1-53.4-148.3 16.1 1.6zM673.4 529.7l-4.9-0.4-63-149.3 16.1 1.5z" fill="#F2F2F2" p-id="13748"></path><path d="M615.8 524c-51-4.9-92.3-39.6-104.9-85.8-20.9 43.5-66.5 69.4-117.6 64.5-53.6-5.1-95.2-45.4-105.5-95.6-1.9-9-1.9-20.2-1.6-29.1 0.3-7.9 7.3-14 15.1-13.1l214.5 20.5 0.1-0.5v0.5L732.6 406.1c8.3 0.8 14.1 8.8 12.2 16.9-4 17.2-12.2 44.5-26.9 59.9-26.1 26.7-61.8 42.8-102.1 41.1zM517 396.5l1.6 19.9c4 50.7 45.4 91.3 98.3 96.3 58.7 5.7 111.1-36.9 117.5-95.3L517 396.5z m-219.9-21c-4.7 58.5 38.7 110.3 97.3 116 52.9 5.1 99.4-26.2 113.2-76l5.3-19.3-215.8-20.7z" fill="#592900" p-id="13749"></path><path d="M500.5 762.5c9-27.1 16.6-40.3 36.3-50.2 22.1-11.1 36.9 1.6 63.1 3.1 20.5 1.1 41.3 0.5 43-15.4 1.3-11.4-12.5-13.3-30.8-21.5-21.4-9.5-31-29-35.4-43.6-2-6.8 1.6-14.9 7.9-18.1l230-115.3c1.7-0.8 3.7-0.9 5.4-0.4l11.2 3.7c2.4 0.8 5.1 0.2 7.1-1.6l53.2-48.7c1.4-1.3 3-1.9 4.8-1.9 5.3 0 8.8-5.6 6.4-10.3l-5.1-10.2c-1.5-2.8-4.6-4.4-7.7-3.9l-81.5 15c-2.6 0.5-4.8 2.4-5.5 5l-4 12.9c-0.5 1.9-1.9 3.4-3.7 4.3L598.4 564.1c-4 2-8.7-0.2-9.9-4.4-3-10.7 0-25.8 4.5-35.6 19.4-43.1 56.7-47 54.4-53.9-5.5-17.2-30.6-12.8-53.5-1.4-70.5 35.4-67.3 67.2-111.5 89.4-42.6 21.4-55 11.6-83.2 2.4-30.7-9.9-62.5-11.2-97.6 9.6-56.6 33.3-89.6 100.7-45.7 188.3 45.9 91.5 112.8 109.7 178.6 76.8 33-16.5 57-45.7 66-72.8z" fill="#BCFF38" p-id="13750"></path><path d="M266 746.2c-35.8-71.3-20.5-135.6 40.8-171.8 27.7-16.4 54.7-19 87.2-8.4 3.5 1.1 6.8 2.3 9.9 3.4 25.4 9 43 13.5 82.9-6.6 21.8-11 33.2-23.9 45.2-37.5 14.4-16.4 29.3-33.3 66.3-51.8 9.6-4.8 17.6-7.3 23.6-8.2-13 7.9-30.2 21.4-41.8 47-5 11.1-9.3 29.3-5.1 44.2 0.3 1.3 0.8 2.4 1.4 3.5 4.9 9.7 16.7 13.7 26.4 8.8l196.8-98.7c4.8-2.4 8.6-6.8 10.1-12l2.9-9.8 74-13.7 0.1 0.3c-1.9 0.8-3.8 2.1-5.3 3.4l-50.8 46.5-8-2.6c-5-1.7-10.3-1.3-15 1.1L577.8 598.9c-11.8 5.9-18.1 20.4-14.4 33.1 1.7 5.7 3.9 11.3 6.4 16.3 8.2 16.5 20.3 28.4 36 35.3 4.3 1.9 8.2 3.4 11.9 4.9s8.4 3.3 11 4.7c-1.6 1.8-7.5 4.3-29.1 3-8-0.4-15.1-2.2-22-3.9-14.3-3.5-30.6-9.4-49-0.2-13 6.5-35.3 15.5-45.5 44-11 30.6-36.5 49.5-64 63.4-65.3 32.5-131.6-10.5-153.1-53.3z" fill="#77D900" p-id="13751"></path><path d="M506.2 676.4c-3.4 0-6.8-1.9-8.3-5.2l-29.1-58c-2.3-4.6-0.4-10.2 4.2-12.6 4.6-2.3 10.2-0.4 12.6 4.2l29.1 58c2.3 4.6 0.4 10.2-4.2 12.6-1.5 0.7-2.9 1-4.3 1zM474.2 692.5c-3.4 0-6.8-1.9-8.3-5.2l-29.1-58c-2.3-4.6-0.4-10.2 4.2-12.6 4.6-2.3 10.2-0.4 12.6 4.2l29.1 58c2.3 4.6 0.4 10.2-4.2 12.6-1.5 0.7-2.8 1-4.3 1zM417.8 764.2c-6 0-12-2.1-16.8-6l-36.5-30.5c-4-3.3-4.5-9.2-1.3-13.2 3.3-4 9.2-4.5 13.2-1.3l36.5 30.5c2.3 1.9 5.4 2.3 8 0.9l14.5-7.3c4.6-2.3 10.2-0.4 12.6 4.2 2.3 4.6 0.4 10.2-4.2 12.6l-14.5 7.3c-3.5 1.9-7.5 2.8-11.5 2.8z" fill="#592900" p-id="13752"></path><path d="M447.9 740m-17 0a17 17 0 1 0 34 0 17 17 0 1 0-34 0Z" fill="#663913" p-id="13753"></path><path d="M350.8 720l-7-13.9c-2.4-4.7-0.4-10.5 4.3-12.9l13.9-7c4.7-2.4 10.5-0.4 12.9 4.3l7 13.9c2.4 4.7 0.4 10.5-4.3 12.9l-13.9 7c-4.7 2.3-10.5 0.4-12.9-4.3z" fill="#FFFFFF" p-id="13754"></path><path d="M359.4 732.3c-6 0-12-3.3-14.9-9.2l-7-13.9c-4.1-8.2-0.7-18.3 7.4-22.3l13.9-7c8.2-4.1 18.3-0.8 22.3 7.4l7 13.9c4.1 8.2 0.8 18.3-7.4 22.3l-13.9 7c-2.3 1.2-4.9 1.8-7.4 1.8z m7-40.1c-0.4 0-0.8 0.1-1.1 0.3l-13.9 7c-1.3 0.6-1.8 2.2-1.1 3.4l7 13.9c0.6 1.3 2.2 1.8 3.4 1.1l13.9-7c1.3-0.6 1.8-2.2 1.1-3.4l-7-13.9c-0.6-0.9-1.4-1.4-2.3-1.4z" fill="#592900" p-id="13755"></path><path d="M375.1 860c-50.7 0-95.3-33.4-127.4-97.4-48.9-97.6-6.7-167.6 49.2-200.7 33.2-19.6 66.6-22.9 105.2-10.4 3.8 1.3 7.2 2.4 10.5 3.5 20.8 7.3 32.1 11.4 65.7-5.5 17.9-9 27.4-19.8 38.5-32.3 15-17.1 32.1-36.5 73-56.9 12.4-6.3 35.8-15.6 52.5-8.7 6.9 2.9 11.8 8.2 14.2 15.5 3.1 9.7-5.9 14.7-13.2 18.7-11.2 6-29.9 16.3-41.5 42-3.3 7.4-5.7 18.3-4.6 26.4l193.2-96.9 3.7-12.1c1.8-5.9 6.7-10.3 12.8-11.5l81.5-15c7.2-1.4 14.5 2.3 17.7 8.9l5.1 10.2c2.6 5.1 2.3 11.2-0.7 16.1-2.9 4.7-7.7 7.5-13.1 7.8l-52.6 48.2c-4.4 4.1-10.6 5.4-16.3 3.5l-10.2-3.3-229.4 115c-2.3 1.1-3.9 4.7-3.1 7.1 3.8 12.7 12.1 29.7 30.1 37.7 3.9 1.8 7.6 3.1 11 4.5 12.6 5 27 10.5 25.3 26.5-2.8 26.7-36.6 24.7-52.9 23.8-10.1-0.6-18.6-2.7-26-4.5-12.7-3.1-21.2-5.2-32.3 0.4-15.7 7.9-22.5 17.5-31.6 44.7-10.5 31.7-37.5 61.6-70.6 78.2-21.9 11.1-43.3 16.5-63.7 16.5z m-16.4-297c-18 0-35 5-52.3 15.2-74.2 43.7-70.3 119.6-42 176 40.3 80.3 99.2 106.1 166 72.6 28.3-14.2 52.4-40.7 61.2-67.4 9.3-27.8 18.1-44.1 41-55.6 17.4-8.8 31.5-5.2 45.3-1.9 7 1.8 14.2 3.5 22.6 4 21.9 1.3 32.5-0.9 33.2-7.1v-0.5c-1-1.7-8.2-4.5-13.6-6.6-3.7-1.5-7.5-2.9-11.8-4.8-24.6-11-35.6-33-40.5-49.5-3.2-11.2 2.3-24 12.7-29.2l230-115.3c4-2 8.3-2.3 12.5-0.9l9.9 3.2 52.3-47.9c2.2-2 4.9-3.3 7.7-4l-2.9-5.9-78.5 14.5-3.5 11.7c-1.3 4.3-4.4 7.9-8.4 10l-196.8 98.7c-4.4 2.2-9.4 2.3-13.9 0.3-4.5-2-7.8-5.8-9.2-10.5-4-14.1 0.2-31.4 4.9-41.9 14.2-31.5 37.2-44.1 49.6-50.8 0.3-0.1 0.5-0.3 0.8-0.4-6.9-2.8-21.3 0.3-36.8 8.1-37.7 18.9-53.5 36.8-67.4 52.7-11.8 13.5-22.9 26.1-44.2 36.7-40.7 20.4-58.2 14.2-80.3 6.5-3.1-1.1-6.5-2.3-10-3.4-13.3-4.5-25.7-6.6-37.6-6.6z" fill="#592900" p-id="13756"></path><path d="M339.6 658.1s-14.1 20.3-39.9 25.3c-45 8.8-62.9-16.9-62.9-16.9l40.5-8.8 62.3 0.4z" fill="#CEB000" p-id="13757"></path><path d="M345.5 647.4c-9.4 15.5-46.2 32.4-79 24.8-94.7-22-46.4-120.6-23.3-118.7 23.2 1.9 39.5 40.7 67.8 53.9 24.1 11.4 44 24.5 34.5 40z" fill="#FFE100" p-id="13758"></path><path d="M350 650.3l-0.6 0.9c-0.3 0.5-1.4 2-2.4 3.1-2.2 2.6-5.6 5.8-10.4 9.2-9.6 6.6-24.7 13.7-44.4 15.7-4.9 0.5-10.1 0.6-15.4 0.2-2.7-0.2-5.4-0.5-8.1-1-1.4-0.3-2.7-0.5-4.2-0.9l-3.9-0.9c-5.6-1.4-11.2-2.7-16.8-4.9-5.6-2.1-11.5-4.8-16.8-8.6-10.8-7.4-19.2-20-22.5-33.6-1.7-6.8-2.3-13.8-2-20.7 0.4-6.9 1.8-13.6 3.8-20 4.2-12.8 10.3-24.9 20.8-34.6 2.7-2.4 5.7-4.6 9.8-6.2 2.1-0.7 4.5-1.3 7.1-1H244.9l0.5 0.1 1.1 0.2c0.9 0.2 2.1 0.4 3 0.7 7.2 2.2 12.6 6.6 17.1 10.7 9 8.6 15.7 17.5 22.7 25.2 6.9 7.7 14.1 14.4 21.7 18.4 3.8 2 8.2 3.9 12 5.8 3.9 2 7.5 4 10.8 6 6.7 4.2 12.4 8.7 16.1 14.3 1.8 2.8 3 5.8 3.3 8.8s-0.1 5.4-0.5 7.3c-0.5 1.9-1.1 3.2-1.6 4.1-0.4 0.8-0.7 1.3-0.7 1.3l-0.4 0.4z m-9-5.7s0.7-0.9 1.4-2.8c0.5-1.8 0.9-4.3-1.3-7.9-2.1-3.7-6.6-7.9-12.5-12-2.9-2.1-6.3-4.1-9.9-6-3.7-2-7.4-3.8-11.9-6-8.9-4.7-17-11.6-24.6-19.2-7.7-7.6-15.1-16.3-23.4-23.3-4.1-3.4-8.6-6.3-12.9-7.3l-1.4-0.2-1.1-0.1-0.5-0.1h-0.3 0.2c-0.3 0-0.9 0.1-1.7 0.5-1.6 0.7-3.4 2.2-5.2 4-7.1 7.4-12.3 18.3-15.1 29-2.7 10.8-3.1 22.2-0.4 32.2 2.7 10.1 9 18.1 16.6 24.8 3.9 3.3 8 6.4 12.4 9 4.5 2.5 9.3 4.7 14 6.2 1.3 0.4 2.5 0.7 3.8 1 1.1 0.3 2.3 0.5 3.4 0.7 2.3 0.4 4.7 0.7 7 0.9 4.6 0.4 9.2 0.3 13.5 0 17.4-1.7 31.3-7.9 39.4-13.3 4.2-2.8 6.9-5.3 8.4-7.2 0.8-1 1.1-1.3 1.7-2.1l0.6-0.9-0.2 0.1z" fill="#592900" p-id="13759"></path><path d="M709.7 616s-33.1-6.9-62.6-28.4c-18.9-13.8-43.4-0.4-28.1 33.5 15.4 33.9 24.8 33.8 36 59.2l54.7-64.3z" fill="#FFE100" p-id="13760"></path><path d="M720 624s-1-0.2-2.8-0.7c-1.8-0.5-4.5-1.3-7.8-2.2-6.8-1.9-16.2-5.1-27.3-9.5-5.5-2.3-11.6-4.8-17.6-7.9-6.2-3.2-12.5-6.7-18.7-11.2l-2.2-1.6c-0.7-0.5-1.6-1.1-2.2-1.5-1.3-0.7-2.8-1.5-4.2-2-3-1-6.2-1.5-9.1-0.8-5.9 0.9-10.1 6.3-10.4 12.9-0.5 6.7 1.8 13.8 4.8 20.2 3.2 7 6.7 13.5 10.2 19.7 7.2 12.5 15 23.5 21.9 32.9s13 16.9 17.2 22.3c4.3 5.4 6.7 8.4 6.7 8.4 2.3 2.9 1.8 7.2-1.1 9.5s-7.2 1.8-9.5-1.1c-0.1-0.2-0.2-0.3-0.3-0.5v-0.1s-2.1-3.2-5.8-9c-3.9-5.7-9.3-13.9-15.7-23.6-3.3-4.9-6.8-10.3-10.3-16.1-3.5-5.7-7.1-12-10.7-18.6-3.5-6.5-7.1-13.6-10.2-20.4-3.3-7.4-6-15.6-5.3-24.7 0.4-4.5 1.9-9.2 5-13 3-3.9 7.5-6.5 12.2-7.3 4.6-0.9 9.3-0.3 13.5 1 2.1 0.7 4 1.6 5.9 2.7 1 0.6 1.8 1 2.5 1.6l2.3 1.6c11.6 7.9 24.2 12.8 35 16.6 10.8 3.8 20.2 5.7 26.7 7.2 3.2 0.7 5.8 1 7.6 1.4 1.8 0.2 2.6 0.4 2.6 0.4h0.1c3.7 0.5 6.3 4 5.7 7.6-0.5 3.7-4 6.3-7.6 5.7-0.6 0.2-0.8 0.1-1.1 0.1z" fill="#592900" p-id="13761"></path><path d="M299.3 159.4l-76.4 50.9c-3.7 2.5-5.2 7.2-3.5 11.3l28.8 73.5c1.8 4.5 0 9.8-4.3 12-0.9 0.5-1.9 1-2.8 1.7-12.3 8.2-18.8 24.2-14.3 35.6 4.5 11.4 17.6 14.1 29.9 5.8 11.5-7.7 19.3-22.8 15.1-33.6l-29.5-75.4c-1.6-4.1-0.1-8.8 3.5-11.3l48.2-32.5c5-3.4 11.9-1.3 14.1 4.4l16.5 42c1.8 4.6-0.3 9.6-4.6 11.9-0.5 0.3-1 0.6-1.6 0.9-12.3 8.2-18.1 24-13.7 35.4 4.5 11.4 19 13.6 31.3 5.3 10.8-7.3 15.7-20.2 16.4-32 0.1-1.4-0.2-2.7-0.6-4l-38.2-97.7c-2.4-5.4-9.3-7.5-14.3-4.2z" fill="#77D900" p-id="13762"></path><path d="M242.3 359.8c-2.3 0-4.6-0.3-6.8-1-6-1.9-10.7-6.4-13.2-12.6-5.3-13.6 1.8-31.6 16.1-41.2 1.1-0.7 2.2-1.4 3.2-2 2.1-1.1 3-3.9 2.1-6.2L215 223.4c-2.4-6.3-0.2-13.2 5.3-16.9l76.4-50.9c3.5-2.4 7.9-3 12.1-1.7 4.1 1.3 7.3 4.4 9 8.3l38.2 97.7c0.7 2 1.1 4 0.9 5.9-0.9 15.4-7.6 28.4-18.5 35.7-8 5.3-17.4 7.1-25.1 4.7-6.2-1.9-10.7-6.3-13.1-12.2-5.3-13.6 1.5-31.6 15.4-40.9 0.6-0.4 1.3-0.8 2-1.1 2.3-1.3 3.3-3.8 2.4-6l-16.5-42c-0.5-1.4-1.7-2.4-3-2.8-1.4-0.4-2.9-0.2-4.1 0.6l-48.2 32.5c-1.9 1.3-2.6 3.5-1.8 5.6l29.5 75.4c5.3 13.7-4.6 31-16.9 39.1-5.3 3.5-11.2 5.4-16.7 5.4z m62.2-197.3c-0.9 0-1.9 0.3-2.6 0.8l-76.4 50.9c-1.9 1.3-2.6 3.5-1.8 5.7l28.8 73.5c2.7 6.9-0.1 14.5-6.5 17.8-0.8 0.4-1.6 0.9-2.4 1.5-10.4 7-16.2 20.7-12.5 29.9 1.4 3.5 4 6 7.3 7.1 4.6 1.5 10.3 0.2 15.6-3.4 10.2-6.9 16.5-19.9 13.3-28l-29.5-75.4c-2.4-6.2-0.3-13.1 5.2-16.9l48.2-32.5c3.5-2.4 8-3 12.1-1.8 4.2 1.3 7.4 4.3 9 8.3l16.5 42c2.6 6.7-0.3 14.3-6.8 17.7-0.4 0.2-0.8 0.4-1.1 0.6-10.3 6.9-15.6 20.2-12 29.7 1.7 4.2 4.8 5.9 7.2 6.7 5 1.6 11.5 0.3 17.1-3.5 11.9-7.9 14-22.5 14.3-28.4 0-0.6-0.1-1.3-0.3-2L309 165.3c-0.5-1.4-1.7-2.4-3-2.8-0.4 0.1-1 0-1.5 0z" fill="#592900" p-id="13763"></path><path d="M186.7 377c-4.3 0-7.7 3.5-7.6 7.8v1c0 0.3 0 0.7-0.1 1.3-0.1 0.5-0.2 1-0.3 1.7-0.3 1.3-0.9 2.8-1.8 4.5-0.4 0.8-1 1.7-1.7 2.5s-1.5 1.7-2.3 2.6c-1.7 1.8-3.9 3.3-6.4 4.7-2.5 1.4-5.3 2.5-8.3 3.5-1.5 0.5-2.8 0.9-4.6 1.7-1.1 0.4-3 1.7-4.1 3.2-1.1 1.6-1.7 3.4-1.8 5.2-0.2 3.4 1.7 7.2 5.3 9.1 0.5 0.3 1.1 0.5 1.8 0.7l0.4 0.1 0.7 0.1h0.5l1.4 0.2 2.7 0.3c1.8 0.1 3.7 0.3 5.4 0.3l11 0.3c3.7 0.1 7.1 0.5 10.4 0.9 5.4 0.8 10.4 1.8 14.9 2.7-1 1.1-2 2.4-2.8 3.8-7.6 12.5-3.7 28.9 8.8 36.5 12.5 7.6 28.9 3.7 36.5-8.9 7.6-12.5 3.7-28.9-8.9-36.5-2.1-1.3-8.1-3.8-11.2-3.8-1.9-0.2-21.7-0.4-36.1-2.9-3.3-0.6-6.8-1.4-10.2-2.3-2.9-0.8-5.9-1.8-9-2.6 1-0.8 2.2-1.8 3.2-2.6 2.6-2.2 5-4.4 7.2-6.4 2.2-2.1 4.2-4.2 5.7-6 1.7-2 3-3.8 4.1-5.3 1.1-1.6 3.9-8.6 3.9-10.1 0.3-4.4-2.5-7.4-6.7-7.3z" fill="#F04726" p-id="13764"></path><path d="M222.1 480.3c-5.6 0-11.3-1.6-16.3-4.6-14.1-8.6-18.9-26.6-11.5-41-2.5-0.4-5.1-0.9-7.8-1.4-3.4-0.5-6.7-0.7-9.9-0.9l-10.8-0.3c-1.7 0-3.3-0.2-5.1-0.3h-0.6c-0.7 0-1.5-0.1-2.2-0.2l-2.1-0.2s-0.4-0.1-0.5-0.1l-1-0.2c-0.1 0-0.5-0.1-0.6-0.1-1-0.3-2-0.6-2.8-1-5.1-2.6-8.1-7.9-7.9-13.5 0.1-2.7 1-5.5 2.7-7.7 1.6-2.4 4.3-4.1 6.2-4.8 1.3-0.5 2.3-0.8 3.2-1.1l1.4-0.5c2.5-0.9 5.3-2 7.7-3.2 2.2-1.1 4-2.5 5.2-3.9 0.7-0.7 1.3-1.3 1.7-1.9l0.7-1c0.3-0.4 0.5-0.8 0.8-1.3 0.8-1.5 1.1-2.6 1.4-3.3l0.3-2.1v-0.7c-0.1-6.9 5.4-12.5 12.3-12.5h0.1c6.7 0 11.6 5 11.6 11.8 0 3-3.4 11.1-4.7 12.8-1.4 2-2.8 3.9-4.4 5.7-1.8 2.1-3.9 4.4-6 6.5-1.1 1-2.4 2.3-3.9 3.5l0.5 0.1c3 0.8 6.3 1.6 9.8 2.2 11.3 2 26.1 2.5 32.3 2.7 1.5 0.1 2.5 0.1 3.1 0.1 4.5 0 11.3 3.1 13.3 4.4 14.7 9 19.3 28.3 10.3 43-4.4 7.1-11.2 12.1-19.3 14.1-2.3 0.5-4.8 0.9-7.2 0.9z m-25.8-54.9c2.5 0.4 4.8 0.9 7 1.4 1.7 0.3 2.9 1.6 3.4 3.1 0.5 1.6 0.2 3.3-0.9 4.6-0.9 1-1.7 2.1-2.3 3.1-6.3 10.3-3 23.8 7.3 30 5 3 10.8 4 16.6 2.6 5.6-1.4 10.4-4.9 13.6-9.8 6.3-10.3 3-23.8-7.3-30-1.9-1.1-7-3-8.6-3h-0.6c-0.4 0-1.4-0.1-2.8-0.1-5.2-0.3-15.5-0.8-25.4-1.9z m-9.6-43.7c-1.7 0-3 1.4-3 3v2.1c0 0.2 0 0.8-0.1 1l-0.3 1.7c-0.5 2-1.3 3.9-2.3 5.8-0.4 0.6-0.8 1.4-1.4 2.1l-0.5 0.8c-0.1 0.2-0.2 0.3-0.3 0.5l-0.4 0.4c-0.6 0.8-1.4 1.7-2.2 2.4-1.8 1.9-4.4 3.8-7.4 5.4-2.9 1.6-6.2 2.8-9 3.9l-1.5 0.5c-0.9 0.3-1.9 0.6-3 1-0.5 0.2-1.5 0.8-1.9 1.5-0.6 0.8-0.9 1.9-1 2.7-0.1 1.5 0.6 3.7 2.7 4.7 0.2 0.1 0.6 0.2 0.9 0.3l2.9 0.4c0.6 0.1 1.1 0.1 1.8 0.2l0.7 0.1c1.6 0.1 3 0.2 4.6 0.3l11 0.3c2.5 0.1 4.9 0.3 7.5 0.5-2.5-0.5-4.9-1.1-7.3-1.8l-9-2.6c-1.7-0.5-2.9-1.9-3.3-3.7-0.3-1.8 0.3-3.4 1.7-4.6 1-0.8 2.1-1.7 3-2.5 2.7-2.2 5.1-4.4 7-6.3 2-1.9 3.8-3.8 5.3-5.6 1.4-1.7 2.6-3.3 3.8-5 0.8-1.3 2.9-6.6 3.1-7.8 0.2-1.7-1.4-1.8-2.1-1.7z" fill="#592900" p-id="13765"></path></svg>