<svg t="1693910779430" class="icon" viewBox="0 0 1024 1024" version="1.1" xmlns="http://www.w3.org/2000/svg" p-id="5258" width="36" height="36"><path d="M919.5 494.9c-0.6 1.8-1.3 3.6-2.1 5.4-0.2 0.6-0.5 1.2-0.8 1.8-0.8 1.8-1.7 3.5-2.7 5.2-0.6 1.1-1.3 2.3-2 3.4-0.3 0.6-0.7 1.1-1.1 1.7-0.7 1.1-1.5 2.2-2.3 3.3-2.4 3.2-5 6.3-7.9 9.2L629.3 796.2 496.8 928.7H341.5L95.7 682.9c-31-31-31-81.9 0-112.9l153.7-153.7L520.8 145c27.6-27.6 70.8-30.7 101.9-9.2 3.9 2.7 7.6 5.7 11 9.2l47.1 47.1 57.8 57.8 115 115 39.5 39.5 7.6 7.6c2.9 2.9 5.6 6 7.9 9.2 0.4 0.6 0.9 1.2 1.3 1.8 0.7 1 1.4 2.1 2.1 3.1 0.7 1.1 1.4 2.3 2 3.4 0.6 1.2 1.2 2.3 1.8 3.5 9.4 19.3 10.7 41.7 3.7 61.9z" fill="#FDF17F" p-id="5259"></path><path d="M919.5 494.9c-0.6 1.8-1.3 3.6-2.1 5.4-0.2 0.6-0.5 1.2-0.8 1.8-0.8 1.8-1.7 3.5-2.7 5.2-0.6 1.1-1.3 2.3-2 3.4-0.3 0.6-0.7 1.1-1.1 1.7-0.7 1.1-1.5 2.2-2.3 3.3-2.4 3.2-5 6.3-7.9 9.2L629.3 796.2 496.8 928.7H341.5l-36.1-36.1c31 31 81.9 31 112.9 0l425-425c27.6-27.6 30.7-70.7 9.3-101.8-2.7-3.9-5.8-7.6-9.3-11.1l10.2 10.2 39.5 39.5 7.6 7.6c2.9 2.9 5.5 6 7.9 9.2 0.4 0.6 0.9 1.2 1.3 1.8 0.7 1 1.4 2.1 2.1 3.1 0.7 1.1 1.4 2.3 2 3.4 0.6 1.2 1.2 2.3 1.8 3.5 9.5 19.3 10.8 41.7 3.8 61.9z" fill="#FAD672" p-id="5260"></path><path d="M928.3 521.5L641.5 808.3 239.7 406.5l286.8-286.8c31-31 81.9-31 112.9 0l288.9 288.9c31 31 31 81.9 0 112.9z" fill="#50E6CC" p-id="5261"></path><path d="M927.1 520.3L640.3 807.1 238.5 405.4l286.8-286.8c31-31 81.9-31 112.9 0l288.9 288.9c31 31 31 81.8 0 112.8z" fill="#50E6CC" p-id="5262"></path><path d="M295.81 462.668L639.036 119.44l57.205 57.205-343.227 343.226zM410.805 577.675L754.032 234.45l57.204 57.204L468.01 634.88zM525.802 692.679L869.03 349.453l57.204 57.204-343.226 343.226z" fill="#45DABD" p-id="5263"></path><path d="M927.1 520.3L640.3 807.1 583 749.8 869.8 463c31-31 31-81.9 0-112.9l57.3 57.3c31 31.1 31 81.9 0 112.9z" fill="#1FC1AD" p-id="5264"></path></svg>