<svg t="1665571440042" class="icon" viewBox="0 0 1024 1024" version="1.1" xmlns="http://www.w3.org/2000/svg" p-id="5281" width="32" height="32"><path d="M509.44 954.88c-250.88 0-455.68-204.8-455.68-455.68s204.8-455.68 455.68-455.68 455.68 204.8 455.68 455.68-204.8 455.68-455.68 455.68z m-51.2-153.6h99.84v-99.84h-99.84v99.84z m74.24-604.16c-115.2 0-225.28 56.32-225.28 202.24h99.84c0-48.64 30.72-102.4 99.84-102.4 40.96 0 99.84 15.36 99.84 76.8 0 56.32-17.92 66.56-71.68 107.52-53.76 35.84-79.36 81.92-76.8 140.8v30.72h102.4c0-92.16 64-102.4 115.2-176.64 25.6-38.4 35.84-74.24 35.84-120.32 0-79.36-71.68-158.72-179.2-158.72z" fill="#ffffff" p-id="5282"></path></svg>